<svg width="168" height="118" viewBox="0 0 168 118" fill="none" xmlns="http://www.w3.org/2000/svg">
<g clip-path="url(#clip0_5_2680)">
<path d="M0.407959 41.264V40.176H4.43996V33.776C4.43996 24.496 8.02396 19.824 13.144 19.824C15.448 19.824 17.304 21.04 17.304 23.216C17.304 24.816 15.832 26.224 14.04 26.224C12.056 26.224 11.544 24.688 11.544 23.792C11.544 22.768 12.184 22.128 12.184 21.744C12.184 21.36 11.8 21.104 11.416 21.104C9.68796 21.104 8.40796 23.408 8.40796 29.936V40.176H13.848V41.264H8.40796V68.912H12.312V70H0.407959V68.912H4.43996V41.264H0.407959ZM24.768 0.23999V68.912H28.416V70H17.152V68.912H20.8V11.76C20.8 5.87198 20.352 4.52799 19.456 4.52799C18.88 4.52799 18.432 4.65599 17.152 5.23198L16.96 4.46399L24.768 0.23999ZM45.5595 69.552C51.4475 69.552 55.4155 65.584 55.4155 55.472C55.4155 46.448 52.0235 40.624 45.4955 40.624C39.7355 40.624 35.5755 44.656 35.5755 54.704C35.5755 63.664 38.9035 69.552 45.5595 69.552ZM44.7275 70.512C38.2635 70.512 31.2875 66.16 31.2875 55.6C31.2875 46.512 36.3435 39.664 46.2635 39.664C52.6635 39.664 59.7035 44.016 59.7035 54.576C59.7035 63.664 54.7115 70.512 44.7275 70.512ZM71.673 46.128C71.673 47.856 69.881 49.2 68.089 49.2C66.425 49.2 65.017 48.24 65.017 46.448C65.017 43.056 69.945 39.664 76.217 39.664C80.825 39.664 86.777 40.944 86.777 48.752V63.088C86.777 65.904 87.161 68.464 88.825 68.464C89.657 68.464 90.809 67.44 91.513 66.736L91.961 67.248C90.297 68.848 88.505 70.512 86.073 70.512C84.409 70.512 82.681 69.232 82.681 65.008V52.976C70.265 53.36 67.641 58.416 67.641 62.96C67.641 66.8 69.753 69.296 72.953 69.296C75.577 69.296 78.073 68.016 80.121 66.416L80.505 67.12C77.945 69.168 74.937 70.512 71.481 70.512C66.681 70.512 63.225 68.208 63.225 63.664C63.225 57.84 68.921 52.72 82.681 52.272V48.304C82.681 42.48 81.145 40.56 76.089 40.56C72.633 40.56 69.433 41.968 69.433 43.184C69.433 43.952 71.673 43.888 71.673 46.128ZM93.3455 70V68.912H97.0575V51.056C97.0575 45.168 96.6095 43.824 95.7135 43.824C95.1375 43.824 94.6895 43.952 93.4095 44.528L93.2175 43.76L101.026 39.664V43.504C103.65 41.584 107.49 39.664 111.65 39.664C118.498 39.664 120.546 43.44 120.546 46.768C120.546 51.952 115.298 55.152 109.346 56.24C114.274 57.008 117.154 59.312 119.522 64.56C123.554 73.52 126.498 90.096 130.082 100.144C134.498 112.56 141.154 116.976 149.09 116.976C157.538 116.976 163.618 110.832 163.618 103.344C163.618 101.296 162.658 98.096 160.93 98.096C158.946 98.096 158.946 100.592 156.386 100.592C154.402 100.592 152.93 99.184 152.93 97.072C152.93 94.576 154.85 92.848 157.602 92.848C162.21 92.848 165.026 97.776 165.026 102.768C165.026 111.024 158.498 117.936 148.898 117.936C138.466 117.936 129.954 109.936 125.474 97.008C122.21 87.664 118.818 73.712 115.554 64.752C112.738 57.008 109.09 56.688 106.274 56.688H104.738V55.92C106.978 55.92 108.578 55.792 110.562 55.024C114.978 53.232 116.258 49.776 116.258 46.832C116.258 43.568 114.594 40.752 110.434 40.752C107.042 40.752 103.33 42.736 101.026 44.528V68.912H104.546V70H93.3455ZM124.541 70V68.912H128.253V51.056C128.253 45.168 127.805 43.824 126.909 43.824C126.333 43.824 125.885 43.952 124.605 44.528L124.413 43.76L132.22 39.664V68.912H135.869V70H124.541ZM129.917 29.68C131.645 29.68 133.053 31.088 133.053 32.624C133.053 34.16 131.645 35.504 129.917 35.504C128.253 35.504 126.781 34.16 126.781 32.624C126.781 31.088 128.253 29.68 129.917 29.68ZM147.173 46.128C147.173 47.856 145.381 49.2 143.589 49.2C141.925 49.2 140.517 48.24 140.517 46.448C140.517 43.056 145.445 39.664 151.717 39.664C156.325 39.664 162.277 40.944 162.277 48.752V63.088C162.277 65.904 162.661 68.464 164.325 68.464C165.157 68.464 166.309 67.44 167.013 66.736L167.461 67.248C165.797 68.848 164.005 70.512 161.573 70.512C159.909 70.512 158.181 69.232 158.181 65.008V52.976C145.765 53.36 143.141 58.416 143.141 62.96C143.141 66.8 145.253 69.296 148.453 69.296C151.077 69.296 153.573 68.016 155.621 66.416L156.005 67.12C153.445 69.168 150.437 70.512 146.981 70.512C142.181 70.512 138.725 68.208 138.725 63.664C138.725 57.84 144.421 52.72 158.181 52.272V48.304C158.181 42.48 156.645 40.56 151.589 40.56C148.133 40.56 144.933 41.968 144.933 43.184C144.933 43.952 147.173 43.888 147.173 46.128Z" fill="#BCAD7E"/>
</g>
<defs>
<clipPath id="clip0_5_2680">
<rect width="168" height="118" fill="white"/>
</clipPath>
</defs>
</svg>
