<svg width="24" height="24" viewBox="0 0 24 24" fill="none" xmlns="http://www.w3.org/2000/svg">
<path d="M18.163 4.48291V4.88396C17.634 4.97792 17.2336 5.14412 16.9618 5.38257C16.5724 5.73667 16.1133 6.27863 15.812 7.00846L9.68351 19.517H9.27575L3.12333 6.84587C2.83679 6.19553 2.44725 5.79809 2.3297 5.65355C2.14602 5.42955 1.9201 5.25432 1.65193 5.12785C1.38376 5.0014 1.02192 4.92011 0.566406 4.88396V4.48291H6.55288V4.88396C5.86225 4.94901 5.533 5.06463 5.32729 5.23082C5.12156 5.39704 5.01871 5.61021 5.01871 5.87034C5.01871 6.23166 5.18769 6.7953 5.52566 7.56127L10.0692 16.1785L14.5116 7.66966C14.8569 6.83143 15.1434 6.24973 15.1434 5.92453C15.1434 5.71499 15.0369 5.51446 14.8238 5.32295C14.6107 5.13147 14.3696 4.99598 13.8627 4.91648C13.826 4.90927 13.7635 4.89843 13.6754 4.88396V4.48291H18.163Z" fill="#ECE7DA"/>
<path d="M23.4338 4.48291V4.88396C22.9048 4.97792 22.5044 5.14412 22.2325 5.38257C21.8431 5.73667 21.384 6.27863 21.0828 7.00846L15.7042 19.517H15.2965L9.61281 6.84587C9.32628 6.19553 8.93673 5.79809 8.81918 5.65355C8.63551 5.42955 8.40959 5.25432 8.14143 5.12785C7.87326 5.0014 7.63032 4.92011 7.1748 4.88396V4.48291H13.0424V4.88396C12.3517 4.94901 12.0225 5.06463 11.8168 5.23082C11.6111 5.39704 11.5082 5.61021 11.5082 5.87034C11.5082 6.23166 11.6772 6.7953 12.0151 7.56127L16.09 16.1785L19.7823 7.66966C20.1276 6.83143 20.4141 6.24973 20.4141 5.92453C20.4141 5.71499 20.3076 5.51446 20.0945 5.32295C19.8815 5.13147 19.5215 4.99598 19.0145 4.91648C18.9778 4.90927 18.9153 4.89843 18.8272 4.88396V4.48291H23.4338Z" fill="#ECE7DA"/>
</svg>
